{"accessors" : [{"bufferView" : 0, "byteOffset" : 0, "componentType" : 5123, "count" : 1794, "type" : "SCALAR", "max" : [1793], "min" : [0]}, {"bufferView" : 1, "byteOffset" : 0, "componentType" : 5126, "count" : 1794, "type" : "VEC3", "max" : [166.15673828125, 71.5482177734375, 24.541213989257812], "min" : [-231.88330078125, -27.301725387573242, -10.712824821472168], "name" : "POSITION"}, {"bufferView" : 1, "byteOffset" : 12, "componentType" : 5126, "count" : 1794, "type" : "VEC3", "max" : [1.0000044107437134, 1.0000044107437134, 1.0000044107437134], "min" : [-1.0000044107437134, -1.0000044107437134, -1.0000044107437134], "name" : "NORMAL"}, {"bufferView" : 1, "byteOffset" : 24, "componentType" : 5126, "count" : 1794, "type" : "VEC2", "max" : [0.9844474792480469, 0.9871841073036194], "min" : [0.009153314866125584, 0.0010311603546142578], "name" : "TEXCOORD_0"}], "asset" : {"generator" : "Aspose.3D 25.11.0", "version" : "2.0"}, "buffers" : [{"uri" : "data:application/octet-stream;base64,", "byteLength" : 61004}], "bufferViews" : [{"buffer" : 0, "byteOffset" : 0, "byteLength" : 3588, "target" : 34963}, {"buffer" : 0, "byteOffset" : 3592, "byteLength" : 57408, "byteStride" : 32, "target" : 34962}], "materials" : [{"name" : "01 - Default", "pbrMetallicRoughness" : {"baseColorFactor" : [0.5882353186607361, 0.5882353186607361, 0.5882353186607361, 1], "metallicFactor" : 1, "roughnessFactor" : 1}, "emissiveFactor" : [0, 0, 0], "alphaMode" : "OPAQUE", "doubleSided" : false}], "meshes" : [{"primitives" : [{"attributes" : {"POSITION" : 1, "NORMAL" : 2, "TEXCOORD_0" : 3}, "indices" : 0, "material" : 0, "mode" : 4}], "name" : ""}], "nodes" : [{"matrix" : [0.01628334447741114, -0.9998674392700195, -2.8323939348379874E-16, 0, 0.9998674392700194, 0.016283344477411137, 4.3711390289310256E-08, 0, -4.3705593973206724E-08, -7.117678779644623E-10, 0.9999999999999999, 0, -20.13113234814577, -33.21441980431729, -9.670378151582781E-07, 1], "mesh" : 0, "name" : "Object002"}], "scene" : 0, "scenes" : [{"nodes" : [0]}]}